<svg width="68" height="40" viewBox="0 0 68 40" fill="none" xmlns="http://www.w3.org/2000/svg">
<path d="M43.3179 20.4212H38.2004L26.4934 39.9317H38.2909L45.2879 28.7308L51.7868 39.9317H63.4937L51.1754 19.4878H56.2929L67.9999 0H56.2024L49.4318 11.4058L42.7065 0H30.9996L43.3179 20.4212Z" fill="white"/>
<path d="M32.9923 11.7245L16.281 39.9317H5.00433L22.6214 10.1764L6.09124 10.1992L0 0H25.9953L32.9923 11.7245Z" fill="white"/>
<path d="M67.7963 37.9738C67.751 37.8145 67.6831 37.6779 67.5699 37.5413C67.4793 37.4047 67.3661 37.3136 67.2302 37.1998C67.0944 37.1087 66.9585 37.0404 66.8 36.9721C66.6415 36.9266 66.483 36.9038 66.3245 36.9038C66.166 36.9038 65.9848 36.9266 65.8489 36.9721C65.6904 37.0176 65.5546 37.0859 65.4187 37.1998C65.2828 37.2908 65.1923 37.4047 65.079 37.5413C64.9885 37.6779 64.9205 37.8145 64.8526 37.9738C64.8073 38.1332 64.7847 38.2925 64.7847 38.4519C64.7847 38.6113 64.8073 38.7934 64.8526 38.93C64.8979 39.0894 64.9658 39.2259 65.079 39.3625C65.1696 39.4991 65.2828 39.5902 65.4187 39.704C65.5546 39.7951 65.6904 39.8634 65.8489 39.9317C66.0074 39.9772 66.166 40 66.3245 40C66.483 40 66.6641 39.9772 66.8 39.9317C66.9585 39.8862 67.0944 39.8179 67.2302 39.704C67.3661 39.613 67.4567 39.4991 67.5699 39.3625C67.6605 39.2259 67.7284 39.0894 67.7963 38.93C67.8416 38.7706 67.8643 38.6113 67.8643 38.4519C67.8643 38.2925 67.8416 38.1332 67.7963 37.9738ZM67.6152 38.8845C67.5699 39.0211 67.502 39.1349 67.434 39.2487C67.3434 39.3625 67.2529 39.4536 67.1396 39.5447C67.0264 39.6357 66.9132 39.6813 66.7773 39.7268C66.6415 39.7723 66.5056 39.7951 66.3471 39.7951C66.1886 39.7951 66.0527 39.7723 65.9169 39.7268C65.781 39.6813 65.6678 39.613 65.5546 39.5447C65.4413 39.4536 65.3508 39.3625 65.2602 39.2487C65.1696 39.1349 65.1243 39.0211 65.079 38.8845C65.0338 38.7479 65.0111 38.6113 65.0111 38.4519C65.0111 38.2925 65.0338 38.1559 65.079 38.0193C65.1243 37.8827 65.1923 37.7689 65.2602 37.6551C65.3508 37.5413 65.4413 37.4502 65.5546 37.3591C65.6678 37.2681 65.781 37.2225 65.9169 37.177C66.0527 37.1315 66.1886 37.1087 66.3471 37.1087C66.5056 37.1087 66.6415 37.1315 66.7773 37.177C66.9132 37.2225 67.0264 37.2908 67.1396 37.3591C67.2529 37.4502 67.3434 37.5413 67.434 37.6551C67.5246 37.7689 67.5699 37.8827 67.6152 38.0193C67.6605 38.1559 67.6831 38.2925 67.6831 38.4519C67.6831 38.6113 67.6605 38.7479 67.6152 38.8845Z" fill="white"/>
<path d="M66.6642 38.5884C66.7548 38.5429 66.8001 38.4974 66.8453 38.4063C66.8906 38.338 66.9133 38.247 66.9133 38.1559C66.9133 38.0648 66.8906 37.9738 66.8453 37.9055C66.8001 37.8372 66.7548 37.7689 66.6642 37.7233C66.5736 37.6778 66.483 37.655 66.3472 37.655H65.8037V39.2942H66.0075V38.6567H66.3698C66.3925 38.6567 66.3925 38.6567 66.4151 38.6567L66.7548 39.2942H66.9812L66.5963 38.6112C66.6189 38.5884 66.6415 38.5884 66.6642 38.5884ZM66.0075 37.8144H66.3472C66.4377 37.8144 66.5057 37.8372 66.551 37.8599C66.5963 37.8827 66.6415 37.9282 66.6642 37.9738C66.6868 38.0193 66.7095 38.0876 66.7095 38.1559C66.7095 38.2242 66.6868 38.2697 66.6642 38.3152C66.6415 38.3608 66.5963 38.4063 66.551 38.4291C66.5057 38.4518 66.4377 38.4746 66.3472 38.4746H66.0075V37.8144Z" fill="white"/>
</svg>
